Coordinates
version=1
nRows=35
nColumns=18
inDegrees=yes

Units are S.I. units (second, meters, Newtons, ...)
Angles are in degrees.

endheader
time	ground_thorax_rot_x	ground_thorax_rot_y	ground_thorax_rot_z	ground_thorax_tx	ground_thorax_ty	ground_thorax_tz	clav_prot	clav_elev	scapula_abduction	scapula_elevation	scapula_upward_rot	scapula_winging	plane_elv	shoulder_elv	axial_rot	elbow_flexion	pro_sup
      3.93000000	     -1.76666613	    -11.58917503	    -11.78049984	     -0.00423131	      0.00403036	     -0.00078352	    -44.46621515	      8.09457975	     -1.01947580	     -2.59075212	     81.52230174	    -12.00833411	     30.12357595	     88.71299852	     -5.54724163	      0.00000000	     34.32000000
      3.94000000	     -1.55660719	    -11.39937186	    -11.50584969	     -0.00423131	      0.00403036	     -0.00078352	    -44.73863283	      8.32914213	     -1.36490272	     -2.42938131	     81.74554395	    -12.21613622	     30.19756974	     88.20680327	     -5.56489824	      0.00000000	     34.32000000
      3.95000000	     -1.48027948	    -11.39516339	    -11.41202524	     -0.00423131	      0.00403036	     -0.00078352	    -44.75110621	      8.31732602	     -1.39996842	     -2.44089643	     81.72336320	    -12.22411097	     30.12733586	     88.20264755	     -5.56619718	      0.00000000	     34.32000000
      3.96000000	     -1.82536121	    -11.12292388	    -11.78235336	     -0.00423131	      0.00403036	     -0.00078352	    -44.84693029	      7.85376631	     -1.70507712	     -2.80048578	     81.38351137	    -12.20393620	     29.51304139	     88.48395944	     -5.20153256	      0.00000000	     34.32000000
      3.97000000	     -1.70374213	    -11.16413061	    -11.60920301	     -0.00423131	      0.00403036	     -0.00078352	    -44.97635181	      8.18480792	     -1.82704962	     -2.56104549	     81.61552540	    -12.34966249	     29.07857542	     88.03673582	     -5.25270622	      0.00000000	     34.32000000
      3.98000000	     -1.66388306	    -11.25851930	    -11.51861199	     -0.00423131	      0.00403036	     -0.00078352	    -44.99524613	      8.38554397	     -1.98806236	     -2.43776743	     81.51195766	    -12.43545532	     28.74744495	     87.95151344	     -5.27956256	      0.00000000	     34.32000000
      3.99000000	     -1.60883856	    -11.31313594	    -11.45099816	     -0.00423131	      0.00403036	     -0.00078352	    -45.00974638	      8.40583360	     -2.03850378	     -2.42820224	     81.48451551	    -12.45472041	     28.67508089	     87.92912896	     -5.28611842	      0.00000000	     34.32000000
      4.00000000	     -1.57152201	    -11.16043830	    -11.47454393	     -0.00423131	      0.00403036	     -0.00078352	    -45.16698623	      8.40831044	     -2.25770495	     -2.43300263	     81.54282374	    -12.54967320	     28.46932408	     87.87241139	     -5.29173047	      0.00000000	     34.32000000
      4.01000000	     -1.51006964	    -11.00341382	    -11.46471028	     -0.00423131	      0.00403036	     -0.00078352	    -45.29707152	      8.39955098	     -2.50906883	     -2.45477715	     81.49522754	    -12.64026239	     28.51737343	     87.92866818	     -5.23258017	      0.00000000	     34.32000000
      4.02000000	     -1.48683711	    -10.92853635	    -11.34311771	     -0.00423131	      0.00403036	     -0.00078352	    -45.30191173	      8.55266542	     -2.60771763	     -2.35870414	     81.42735030	    -12.69758789	     28.20762355	     87.87620245	     -5.26376290	      0.00000000	     34.32000000
      4.03000000	     -1.57062341	    -10.98409393	    -11.40906697	     -0.00423131	      0.00403036	     -0.00078352	    -45.24850140	      8.44132140	     -2.50725527	     -2.43217593	     81.40501131	    -12.63413054	     27.74656887	     87.81434447	     -5.26573355	      0.00000000	     34.32000000
      4.04000000	     -1.53920104	    -11.00582770	    -11.38871995	     -0.00423131	      0.00403036	     -0.00078352	    -45.28870227	      8.45077033	     -2.57404325	     -2.42865211	     81.40870713	    -12.66261233	     27.49650285	     87.72987472	     -5.32492767	      0.00000000	     34.32000000
      4.05000000	     -1.51691670	    -10.96191574	    -11.36258778	     -0.00423131	      0.00403036	     -0.00078352	    -45.43109767	      8.49264499	     -2.84943584	     -2.41568154	     81.37292976	    -12.77437898	     27.42025368	     87.58025983	     -5.34871457	      0.00000000	     34.32000000
      4.06000000	     -1.44747185	    -10.78802787	    -11.32643713	     -0.00423131	      0.00403036	     -0.00078352	    -45.63813634	      8.54076748	     -3.27163744	     -2.40900229	     81.28708302	    -12.93929091	     27.40455316	     87.47686714	     -5.26873769	      0.00000000	     34.32000000
      4.07000000	     -1.41919443	    -10.65168748	    -11.27408352	     -0.00423131	      0.00403036	     -0.00078352	    -45.81696751	      8.56108911	     -3.58150037	     -2.41067994	     81.27698146	    -13.06679402	     27.29035530	     87.25298012	     -5.22425886	      0.00000000	     34.32000000
      4.08000000	     -1.43637799	    -10.56085444	    -11.25675893	     -0.00423131	      0.00403036	     -0.00078352	    -45.92367082	      8.54892398	     -3.76280925	     -2.42848041	     81.26714106	    -13.13667184	     27.00459706	     87.12152030	     -5.24011759	      0.00000000	     34.32000000
      4.09000000	     -1.49399135	    -10.41718348	    -11.28005244	     -0.00423131	      0.00403036	     -0.00078352	    -46.02928886	      8.49463441	     -3.97712904	     -2.48110310	     81.19663567	    -13.20317590	     26.65476479	     87.10107056	     -5.23434103	      0.00000000	     34.32000000
      4.10000000	     -1.39914981	    -10.28097167	    -11.15994169	     -0.00423131	      0.00403036	     -0.00078352	    -46.16521961	      8.64221076	     -4.18237030	     -2.38404420	     81.27280411	    -13.32674697	     26.37269574	     86.87897024	     -5.26339352	      0.00000000	     34.32000000
      4.11000000	     -1.49548599	    -10.08605235	    -11.18540461	     -0.00423131	      0.00403036	     -0.00078352	    -46.22594420	      8.52666189	     -4.41466516	     -2.48954238	     81.05885140	    -13.36667496	     25.98012626	     86.83054912	     -5.17518623	      0.00000000	     34.32000000
      4.12000000	     -1.40034838	    -10.11131479	    -11.10929633	     -0.00423131	      0.00403036	     -0.00078352	    -46.35258292	      8.52309259	     -4.51246109	     -2.48660262	     81.20461880	    -13.43046441	     25.82327512	     86.39736548	     -5.23860417	      0.00000000	     34.32000000
      4.13000000	     -1.36273691	    -10.11767382	    -11.11465106	     -0.00423131	      0.00403036	     -0.00078352	    -46.41749836	      8.59855488	     -4.65785586	     -2.44334394	     81.17969661	    -13.50072206	     25.50424987	     86.26485373	     -5.28494200	      0.00000000	     34.32000000
      4.14000000	     -1.55656208	     -9.86975949	    -11.27175414	     -0.00423131	      0.00403036	     -0.00078352	    -46.67456671	      8.48419997	     -5.33461922	     -2.57989023	     80.80334530	    -13.70010368	     25.47917044	     86.31913460	     -5.23286504	      0.00000000	     34.32000000
      4.15000000	     -1.14842084	    -10.00878476	    -10.84421343	     -0.00423131	      0.00403036	     -0.00078352	    -46.76214986	      9.14169507	     -5.32649075	     -2.09842676	     81.23450191	    -13.88632114	     25.19518719	     86.01606994	     -5.73183372	      0.00000000	     34.32000000
      4.16000000	     -1.10030198	     -9.89758588	    -10.72827573	     -0.00423131	      0.00403036	     -0.00078352	    -46.81188646	      9.16567539	     -5.46808233	     -2.09366870	     81.16327645	    -13.93845477	     24.77659407	     85.98903259	     -5.75049618	      0.00000000	     34.32000000
      4.17000000	     -1.34477821	     -9.69881152	    -11.03637877	     -0.00423131	      0.00403036	     -0.00078352	    -46.98321527	      8.69227066	     -5.72058017	     -2.43954042	     81.03468551	    -13.94206805	     24.20269513	     85.83110145	     -5.67179630	      0.00000000	     34.32000000
      4.18000000	     -1.33420748	     -9.67245063	    -10.91016302	     -0.00423131	      0.00403036	     -0.00078352	    -47.01148713	      8.91033429	     -5.92862341	     -2.30907435	     80.89619177	    -14.04570421	     23.68309547	     85.64517467	     -5.71821281	      0.00000000	     34.32000000
      4.19000000	     -1.53546043	     -9.59208597	    -11.03597130	     -0.00423131	      0.00403036	     -0.00078352	    -47.23072284	      8.73059714	     -6.31703442	     -2.45772142	     80.79237897	    -14.16295341	     23.33249047	     85.27898672	     -5.59702894	      0.00000000	     34.32000000
      4.20000000	     -1.18928156	     -9.80607471	    -10.78009693	     -0.00423131	      0.00403036	     -0.00078352	    -47.20333770	      9.20708020	     -6.20346544	     -2.10792595	     81.05312875	    -14.24233722	     22.81975622	     85.29530367	     -6.35369251	      0.00000000	     34.32000000
      4.21000000	     -1.69868136	     -9.59493630	    -11.10515108	     -0.00423131	      0.00403036	     -0.00078352	    -47.30206515	      8.55932910	     -6.49940347	     -2.59381748	     80.64379472	    -14.18361559	     22.27241745	     85.29173843	     -6.07325330	      0.00000000	     34.32000000
      4.22000000	     -1.46541362	     -9.53354866	    -10.94465190	     -0.00423131	      0.00403036	     -0.00078352	    -47.39573893	      8.82121357	     -6.59822906	     -2.40775109	     80.80795479	    -14.30404505	     21.94247893	     85.18399245	     -6.16652918	      0.00000000	     34.32000000
      4.23000000	     -1.43410829	     -9.40361628	    -10.91737618	     -0.00423131	      0.00403036	     -0.00078352	    -47.49608927	      8.83631757	     -6.79513877	     -2.40928411	     80.76838025	    -14.38551229	     21.67628081	     85.14091629	     -6.18730877	      0.00000000	     34.32000000
      4.24000000	     -1.44078957	     -9.25495147	    -10.85641519	     -0.00423131	      0.00403036	     -0.00078352	    -47.60632847	      8.81669254	     -7.03912736	     -2.44038022	     80.67460379	    -14.47209403	     21.44332971	     85.08349178	     -6.22884032	      0.00000000	     34.32000000
      4.25000000	     -1.37425393	     -9.39935079	    -10.76139303	     -0.00423131	      0.00403036	     -0.00078352	    -47.63276438	      8.81237405	     -7.10837266	     -2.44899314	     80.63790209	    -14.49476125	     21.37430488	     85.08676320	     -6.23552497	      0.00000000	     34.32000000
      4.26000000	     -1.50139038	     -9.27125693	    -10.88792444	     -0.00423131	      0.00403036	     -0.00078352	    -47.88995747	      8.72254457	     -7.63450154	     -2.54676188	     80.45884121	    -14.67795240	     21.04939154	     84.85209850	     -6.21394496	      0.00000000	     34.32000000
      4.27000000	     -1.37293568	     -9.24901985	    -10.77746421	     -0.00423131	      0.00403036	     -0.00078352	    -47.94131320	      8.99239059	     -7.81994225	     -2.37320767	     80.41865909	    -14.80124263	     20.59401288	     84.78686831	     -6.37632403	      0.00000000	     34.32000000
